<?xml version="1.0" encoding="UTF-8"?>
<svg width="116px" height="125px" viewBox="0 0 116 125" version="1.1" xmlns="http://www.w3.org/2000/svg" xmlns:xlink="http://www.w3.org/1999/xlink">
    <!-- Generator: Sketch 47.1 (45422) - http://www.bohemiancoding.com/sketch -->
    <title>love-letter</title>
    <desc>Created with Sketch.</desc>
    <defs></defs>
    <g id="Page-1" stroke="none" stroke-width="1" fill="none" fill-rule="evenodd">
        <g id="love-letter" fill-rule="nonzero">
            <g id="Group-12" fill="#0A0A0A">
                <g id="if_Letter_1872934">
                    <path d="M101,46.6 L101,3 C101,1.4 99.6,0 97.9,0 L18.1,0 C16.4,0 15,1.4 15,3 L15,46.6 L0,61.6 L0,122 C0,123.7 1.3,125 3,125 L113,125 C114.7,125 116,123.7 116,122 L116,61.6 L101,46.6 Z M101,49.4 L113.3,61.8 L101,68.5 L101,49.4 Z M17,3 C17,2.5 17.5,2 18.1,2 L97.9,2 C98.5,2 99,2.5 99,3 L99,69.6 L70.4,85.1 L59.9,76.3 C58.7,75.4 57.1,75.4 56.1,76.3 L45.7,85.1 L17,69.6 L17,3 Z M15,49.4 L15,68.5 L2.7,61.8 L15,49.4 Z M2,121.9 L2,63.7 L44,86.5 L2,121.9 Z M3.7,123 L57.4,77.9 C57.7,77.6 58.3,77.6 58.7,77.9 L112.3,123 L3.7,123 Z M114,121.9 L72,86.5 L114,63.7 L114,121.9 Z" id="Shape"></path>
                </g>
            </g>
            <g id="if_heart_383128" transform="translate(36.000000, 12.000000)" fill="#C4274E">
                <path d="M45.2823529,4.9901087 C39.8617647,-0.419673913 31.0715686,-0.419673913 25.6519608,4.9901087 L24.8921569,5.74728261 L23.9156863,4.9901087 C18.495098,-0.419673913 9.48921569,-0.419673913 4.06764706,4.9901087 C-1.35294118,10.398913 -1.24509804,19.1690217 4.17647059,24.5788043 L22.5617647,42.8165217 C23.2196078,43.4729348 23.9343137,44.0471739 24.8911765,44.5441304 C25.6362745,44.0471739 26.345098,43.4729348 27.0039216,42.8165217 L45.2813725,24.5788043 C50.7029412,19.1690217 50.7029412,10.398913 45.2823529,4.9901087 Z" id="Shape"></path>
            </g>
        </g>
    </g>
</svg>